<mxfile host="app.diagrams.net" modified="2020-08-17T08:55:01.592Z" agent="5.0 (Windows NT 10.0; Win64; x64) AppleWebKit/537.36 (KHTML, like Gecko) Chrome/84.0.4147.125 Safari/537.36" etag="55DBSGUaxCIQXhu453No" version="13.6.2" type="github">
  <diagram id="R2lEEEUBdFMjLlhIrx00" name="Page-1">
    <mxGraphModel dx="2580" dy="832" grid="1" gridSize="10" guides="1" tooltips="1" connect="1" arrows="1" fold="1" page="1" pageScale="1" pageWidth="850" pageHeight="1100" math="0" shadow="0" extFonts="Permanent Marker^https://fonts.googleapis.com/css?family=Permanent+Marker">
      <root>
        <mxCell id="0" />
        <mxCell id="1" parent="0" />
        <mxCell id="HlUUgPDsN3vnLuuE_RGb-1" value="Take Admission" style="rhombus;whiteSpace=wrap;html=1;" vertex="1" parent="1">
          <mxGeometry x="337.5" y="220" width="200" height="120" as="geometry" />
        </mxCell>
        <mxCell id="HlUUgPDsN3vnLuuE_RGb-2" value="Admission" style="rounded=0;whiteSpace=wrap;html=1;direction=east;" vertex="1" parent="1">
          <mxGeometry x="630" y="280" width="140" height="70" as="geometry" />
        </mxCell>
        <mxCell id="HlUUgPDsN3vnLuuE_RGb-3" value="Student" style="rounded=0;whiteSpace=wrap;html=1;" vertex="1" parent="1">
          <mxGeometry x="90" y="245" width="140" height="70" as="geometry" />
        </mxCell>
        <mxCell id="HlUUgPDsN3vnLuuE_RGb-8" value="First name" style="ellipse;whiteSpace=wrap;html=1;" vertex="1" parent="1">
          <mxGeometry x="-290" y="280" width="120" height="70" as="geometry" />
        </mxCell>
        <mxCell id="HlUUgPDsN3vnLuuE_RGb-9" value="Last name" style="ellipse;whiteSpace=wrap;html=1;" vertex="1" parent="1">
          <mxGeometry x="-310" y="370" width="120" height="70" as="geometry" />
        </mxCell>
        <mxCell id="HlUUgPDsN3vnLuuE_RGb-15" value="S_id" style="ellipse;whiteSpace=wrap;html=1;" vertex="1" parent="1">
          <mxGeometry x="950" y="170" width="120" height="80" as="geometry" />
        </mxCell>
        <mxCell id="HlUUgPDsN3vnLuuE_RGb-16" value="Date of enollment" style="ellipse;whiteSpace=wrap;html=1;" vertex="1" parent="1">
          <mxGeometry x="950" y="275" width="120" height="80" as="geometry" />
        </mxCell>
        <mxCell id="HlUUgPDsN3vnLuuE_RGb-17" value="Course" style="ellipse;whiteSpace=wrap;html=1;" vertex="1" parent="1">
          <mxGeometry x="940" y="380" width="120" height="80" as="geometry" />
        </mxCell>
        <mxCell id="HlUUgPDsN3vnLuuE_RGb-18" value="" style="endArrow=none;html=1;entryX=0;entryY=0.5;entryDx=0;entryDy=0;exitX=1;exitY=0.5;exitDx=0;exitDy=0;" edge="1" parent="1" source="HlUUgPDsN3vnLuuE_RGb-2" target="HlUUgPDsN3vnLuuE_RGb-15">
          <mxGeometry width="50" height="50" relative="1" as="geometry">
            <mxPoint x="400" y="280" as="sourcePoint" />
            <mxPoint x="450" y="230" as="targetPoint" />
          </mxGeometry>
        </mxCell>
        <mxCell id="HlUUgPDsN3vnLuuE_RGb-20" value="" style="endArrow=none;html=1;exitX=-0.006;exitY=0.296;exitDx=0;exitDy=0;entryX=1;entryY=0.5;entryDx=0;entryDy=0;exitPerimeter=0;" edge="1" parent="1" source="HlUUgPDsN3vnLuuE_RGb-17" target="HlUUgPDsN3vnLuuE_RGb-2">
          <mxGeometry width="50" height="50" relative="1" as="geometry">
            <mxPoint x="720" y="270" as="sourcePoint" />
            <mxPoint x="770" y="230" as="targetPoint" />
          </mxGeometry>
        </mxCell>
        <mxCell id="HlUUgPDsN3vnLuuE_RGb-22" value="TIME TABLE" style="rounded=0;whiteSpace=wrap;html=1;direction=west;" vertex="1" parent="1">
          <mxGeometry x="332.5" y="470" width="210" height="90" as="geometry" />
        </mxCell>
        <mxCell id="HlUUgPDsN3vnLuuE_RGb-25" value="" style="endArrow=none;html=1;entryX=0.5;entryY=1;entryDx=0;entryDy=0;" edge="1" parent="1" source="HlUUgPDsN3vnLuuE_RGb-22" target="HlUUgPDsN3vnLuuE_RGb-1">
          <mxGeometry width="50" height="50" relative="1" as="geometry">
            <mxPoint x="400" y="280" as="sourcePoint" />
            <mxPoint x="450" y="230" as="targetPoint" />
          </mxGeometry>
        </mxCell>
        <mxCell id="HlUUgPDsN3vnLuuE_RGb-26" value="" style="endArrow=none;html=1;entryX=1;entryY=0.5;entryDx=0;entryDy=0;exitX=0.978;exitY=0.254;exitDx=0;exitDy=0;exitPerimeter=0;" edge="1" parent="1" source="HlUUgPDsN3vnLuuE_RGb-31" target="HlUUgPDsN3vnLuuE_RGb-22">
          <mxGeometry width="50" height="50" relative="1" as="geometry">
            <mxPoint x="840" y="630" as="sourcePoint" />
            <mxPoint x="570" y="650" as="targetPoint" />
          </mxGeometry>
        </mxCell>
        <mxCell id="HlUUgPDsN3vnLuuE_RGb-27" value="" style="endArrow=none;html=1;entryX=1;entryY=0.5;entryDx=0;entryDy=0;exitX=1;exitY=0.5;exitDx=0;exitDy=0;" edge="1" parent="1" source="HlUUgPDsN3vnLuuE_RGb-30" target="HlUUgPDsN3vnLuuE_RGb-22">
          <mxGeometry width="50" height="50" relative="1" as="geometry">
            <mxPoint x="770" y="760" as="sourcePoint" />
            <mxPoint x="450" y="630" as="targetPoint" />
          </mxGeometry>
        </mxCell>
        <mxCell id="HlUUgPDsN3vnLuuE_RGb-28" value="" style="endArrow=none;html=1;exitX=1;exitY=0.5;exitDx=0;exitDy=0;entryX=1;entryY=0.5;entryDx=0;entryDy=0;" edge="1" parent="1" source="HlUUgPDsN3vnLuuE_RGb-22" target="HlUUgPDsN3vnLuuE_RGb-29">
          <mxGeometry width="50" height="50" relative="1" as="geometry">
            <mxPoint x="570" y="700" as="sourcePoint" />
            <mxPoint x="740" y="520" as="targetPoint" />
            <Array as="points" />
          </mxGeometry>
        </mxCell>
        <mxCell id="HlUUgPDsN3vnLuuE_RGb-29" value="Time&amp;nbsp;" style="ellipse;whiteSpace=wrap;html=1;" vertex="1" parent="1">
          <mxGeometry x="-60" y="370" width="120" height="80" as="geometry" />
        </mxCell>
        <mxCell id="HlUUgPDsN3vnLuuE_RGb-30" value="Date" style="ellipse;whiteSpace=wrap;html=1;" vertex="1" parent="1">
          <mxGeometry x="-60" y="475" width="120" height="80" as="geometry" />
        </mxCell>
        <mxCell id="HlUUgPDsN3vnLuuE_RGb-31" value="Teacher Name" style="ellipse;whiteSpace=wrap;html=1;" vertex="1" parent="1">
          <mxGeometry x="-60" y="600" width="120" height="80" as="geometry" />
        </mxCell>
        <mxCell id="HlUUgPDsN3vnLuuE_RGb-32" value="" style="endArrow=none;html=1;entryX=0.5;entryY=0;entryDx=0;entryDy=0;exitX=0.5;exitY=0;exitDx=0;exitDy=0;" edge="1" parent="1" source="HlUUgPDsN3vnLuuE_RGb-33" target="HlUUgPDsN3vnLuuE_RGb-22">
          <mxGeometry width="50" height="50" relative="1" as="geometry">
            <mxPoint x="468" y="900" as="sourcePoint" />
            <mxPoint x="450" y="630" as="targetPoint" />
          </mxGeometry>
        </mxCell>
        <mxCell id="HlUUgPDsN3vnLuuE_RGb-33" value="Lectures" style="rhombus;whiteSpace=wrap;html=1;" vertex="1" parent="1">
          <mxGeometry x="316.25" y="660" width="242.5" height="80" as="geometry" />
        </mxCell>
        <mxCell id="HlUUgPDsN3vnLuuE_RGb-34" value="" style="endArrow=none;html=1;exitX=0.978;exitY=0.671;exitDx=0;exitDy=0;exitPerimeter=0;entryX=0;entryY=0.5;entryDx=0;entryDy=0;" edge="1" parent="1" source="HlUUgPDsN3vnLuuE_RGb-8" target="HlUUgPDsN3vnLuuE_RGb-3">
          <mxGeometry width="50" height="50" relative="1" as="geometry">
            <mxPoint x="-160" y="220" as="sourcePoint" />
            <mxPoint x="-110" y="170" as="targetPoint" />
          </mxGeometry>
        </mxCell>
        <mxCell id="HlUUgPDsN3vnLuuE_RGb-35" value="" style="endArrow=none;html=1;entryX=1;entryY=0.5;entryDx=0;entryDy=0;exitX=0;exitY=0.5;exitDx=0;exitDy=0;" edge="1" parent="1" source="HlUUgPDsN3vnLuuE_RGb-3" target="HlUUgPDsN3vnLuuE_RGb-9">
          <mxGeometry width="50" height="50" relative="1" as="geometry">
            <mxPoint x="-280" y="540" as="sourcePoint" />
            <mxPoint x="-230" y="490" as="targetPoint" />
          </mxGeometry>
        </mxCell>
        <mxCell id="HlUUgPDsN3vnLuuE_RGb-39" value="First name" style="ellipse;whiteSpace=wrap;html=1;" vertex="1" parent="1">
          <mxGeometry x="-370" y="555" width="120" height="80" as="geometry" />
        </mxCell>
        <mxCell id="HlUUgPDsN3vnLuuE_RGb-40" value="Last name" style="ellipse;whiteSpace=wrap;html=1;" vertex="1" parent="1">
          <mxGeometry x="-370" y="650" width="120" height="80" as="geometry" />
        </mxCell>
        <mxCell id="HlUUgPDsN3vnLuuE_RGb-41" value="Email" style="ellipse;whiteSpace=wrap;html=1;" vertex="1" parent="1">
          <mxGeometry x="-370" y="760" width="120" height="80" as="geometry" />
        </mxCell>
        <mxCell id="HlUUgPDsN3vnLuuE_RGb-42" value="address" style="ellipse;whiteSpace=wrap;html=1;" vertex="1" parent="1">
          <mxGeometry x="-360" y="870" width="120" height="80" as="geometry" />
        </mxCell>
        <mxCell id="HlUUgPDsN3vnLuuE_RGb-45" value="Lecturer" style="rounded=0;whiteSpace=wrap;html=1;" vertex="1" parent="1">
          <mxGeometry x="80" y="710" width="160" height="60" as="geometry" />
        </mxCell>
        <mxCell id="HlUUgPDsN3vnLuuE_RGb-46" value="" style="endArrow=none;html=1;entryX=0;entryY=0.5;entryDx=0;entryDy=0;" edge="1" parent="1" source="HlUUgPDsN3vnLuuE_RGb-45" target="HlUUgPDsN3vnLuuE_RGb-33">
          <mxGeometry width="50" height="50" relative="1" as="geometry">
            <mxPoint x="180" y="1260" as="sourcePoint" />
            <mxPoint x="250.71067811865476" y="1210" as="targetPoint" />
          </mxGeometry>
        </mxCell>
        <mxCell id="HlUUgPDsN3vnLuuE_RGb-47" value="" style="endArrow=none;html=1;entryX=1;entryY=0.5;entryDx=0;entryDy=0;exitX=0;exitY=0.5;exitDx=0;exitDy=0;" edge="1" parent="1" source="HlUUgPDsN3vnLuuE_RGb-45" target="HlUUgPDsN3vnLuuE_RGb-41">
          <mxGeometry width="50" height="50" relative="1" as="geometry">
            <mxPoint x="10" y="820" as="sourcePoint" />
            <mxPoint x="-50.710678118654755" y="1210" as="targetPoint" />
          </mxGeometry>
        </mxCell>
        <mxCell id="HlUUgPDsN3vnLuuE_RGb-48" value="" style="endArrow=none;html=1;exitX=0;exitY=0.5;exitDx=0;exitDy=0;entryX=1;entryY=0.5;entryDx=0;entryDy=0;" edge="1" parent="1" source="HlUUgPDsN3vnLuuE_RGb-45" target="HlUUgPDsN3vnLuuE_RGb-39">
          <mxGeometry width="50" height="50" relative="1" as="geometry">
            <mxPoint x="-160" y="1060" as="sourcePoint" />
            <mxPoint x="-110" y="1010" as="targetPoint" />
          </mxGeometry>
        </mxCell>
        <mxCell id="HlUUgPDsN3vnLuuE_RGb-49" value="" style="endArrow=none;html=1;exitX=1;exitY=0.5;exitDx=0;exitDy=0;entryX=0;entryY=0.5;entryDx=0;entryDy=0;" edge="1" parent="1" source="HlUUgPDsN3vnLuuE_RGb-42" target="HlUUgPDsN3vnLuuE_RGb-45">
          <mxGeometry width="50" height="50" relative="1" as="geometry">
            <mxPoint x="-120" y="1400" as="sourcePoint" />
            <mxPoint x="-70" y="1350" as="targetPoint" />
          </mxGeometry>
        </mxCell>
        <mxCell id="HlUUgPDsN3vnLuuE_RGb-50" value="" style="endArrow=none;html=1;exitX=1;exitY=0.5;exitDx=0;exitDy=0;entryX=0;entryY=0.5;entryDx=0;entryDy=0;" edge="1" parent="1" source="HlUUgPDsN3vnLuuE_RGb-33" target="HlUUgPDsN3vnLuuE_RGb-51">
          <mxGeometry width="50" height="50" relative="1" as="geometry">
            <mxPoint x="700" y="1220" as="sourcePoint" />
            <mxPoint x="680" y="1210" as="targetPoint" />
          </mxGeometry>
        </mxCell>
        <mxCell id="HlUUgPDsN3vnLuuE_RGb-51" value="Subjects" style="rounded=0;whiteSpace=wrap;html=1;" vertex="1" parent="1">
          <mxGeometry x="640" y="700" width="200" height="60" as="geometry" />
        </mxCell>
        <mxCell id="HlUUgPDsN3vnLuuE_RGb-52" value="" style="endArrow=none;html=1;exitX=0.5;exitY=0;exitDx=0;exitDy=0;entryX=0.5;entryY=1;entryDx=0;entryDy=0;" edge="1" parent="1" source="HlUUgPDsN3vnLuuE_RGb-51" target="HlUUgPDsN3vnLuuE_RGb-54">
          <mxGeometry width="50" height="50" relative="1" as="geometry">
            <mxPoint x="880" y="1200" as="sourcePoint" />
            <mxPoint x="1000" y="1195" as="targetPoint" />
          </mxGeometry>
        </mxCell>
        <mxCell id="HlUUgPDsN3vnLuuE_RGb-54" value="Course code" style="ellipse;whiteSpace=wrap;html=1;" vertex="1" parent="1">
          <mxGeometry x="680" y="450" width="120" height="80" as="geometry" />
        </mxCell>
        <mxCell id="HlUUgPDsN3vnLuuE_RGb-55" value="" style="endArrow=none;html=1;exitX=1;exitY=0.5;exitDx=0;exitDy=0;entryX=0;entryY=0.5;entryDx=0;entryDy=0;" edge="1" parent="1" source="HlUUgPDsN3vnLuuE_RGb-40" target="HlUUgPDsN3vnLuuE_RGb-45">
          <mxGeometry width="50" height="50" relative="1" as="geometry">
            <mxPoint x="-190" y="830" as="sourcePoint" />
            <mxPoint x="-140" y="780" as="targetPoint" />
          </mxGeometry>
        </mxCell>
        <mxCell id="HlUUgPDsN3vnLuuE_RGb-56" value="" style="endArrow=none;html=1;exitX=1;exitY=0.5;exitDx=0;exitDy=0;entryX=0;entryY=0.5;entryDx=0;entryDy=0;" edge="1" parent="1" source="HlUUgPDsN3vnLuuE_RGb-2" target="HlUUgPDsN3vnLuuE_RGb-16">
          <mxGeometry width="50" height="50" relative="1" as="geometry">
            <mxPoint x="840" y="300" as="sourcePoint" />
            <mxPoint x="890" y="250" as="targetPoint" />
          </mxGeometry>
        </mxCell>
        <mxCell id="HlUUgPDsN3vnLuuE_RGb-57" value="" style="endArrow=none;html=1;exitX=0;exitY=0.5;exitDx=0;exitDy=0;entryX=1;entryY=0.5;entryDx=0;entryDy=0;" edge="1" parent="1" source="HlUUgPDsN3vnLuuE_RGb-3" target="HlUUgPDsN3vnLuuE_RGb-60">
          <mxGeometry width="50" height="50" relative="1" as="geometry">
            <mxPoint x="-60" y="200" as="sourcePoint" />
            <mxPoint x="-40" y="150" as="targetPoint" />
          </mxGeometry>
        </mxCell>
        <mxCell id="HlUUgPDsN3vnLuuE_RGb-60" value="Mobile no" style="ellipse;shape=doubleEllipse;margin=3;whiteSpace=wrap;html=1;align=center;" vertex="1" parent="1">
          <mxGeometry x="-320" y="200" width="170" height="70" as="geometry" />
        </mxCell>
        <mxCell id="HlUUgPDsN3vnLuuE_RGb-61" value="Aadar card" style="ellipse;whiteSpace=wrap;html=1;" vertex="1" parent="1">
          <mxGeometry x="-260" y="100" width="170" height="80" as="geometry" />
        </mxCell>
        <mxCell id="HlUUgPDsN3vnLuuE_RGb-62" value="" style="endArrow=none;html=1;entryX=0.5;entryY=1;entryDx=0;entryDy=0;exitX=0;exitY=0.5;exitDx=0;exitDy=0;" edge="1" parent="1" source="HlUUgPDsN3vnLuuE_RGb-3" target="HlUUgPDsN3vnLuuE_RGb-61">
          <mxGeometry width="50" height="50" relative="1" as="geometry">
            <mxPoint x="100" y="270" as="sourcePoint" />
            <mxPoint x="130" y="130" as="targetPoint" />
          </mxGeometry>
        </mxCell>
        <mxCell id="HlUUgPDsN3vnLuuE_RGb-64" value="" style="endArrow=none;html=1;entryX=1;entryY=0.5;entryDx=0;entryDy=0;exitX=0;exitY=0.5;exitDx=0;exitDy=0;" edge="1" parent="1" source="HlUUgPDsN3vnLuuE_RGb-1" target="HlUUgPDsN3vnLuuE_RGb-3">
          <mxGeometry width="50" height="50" relative="1" as="geometry">
            <mxPoint x="50" y="310" as="sourcePoint" />
            <mxPoint x="100" y="260" as="targetPoint" />
          </mxGeometry>
        </mxCell>
        <mxCell id="HlUUgPDsN3vnLuuE_RGb-65" value="" style="endArrow=none;html=1;exitX=1;exitY=0.5;exitDx=0;exitDy=0;entryX=0;entryY=0.5;entryDx=0;entryDy=0;" edge="1" parent="1" source="HlUUgPDsN3vnLuuE_RGb-1" target="HlUUgPDsN3vnLuuE_RGb-2">
          <mxGeometry width="50" height="50" relative="1" as="geometry">
            <mxPoint x="540" y="320" as="sourcePoint" />
            <mxPoint x="590" y="270" as="targetPoint" />
          </mxGeometry>
        </mxCell>
        <mxCell id="HlUUgPDsN3vnLuuE_RGb-66" value="AGE" style="ellipse;whiteSpace=wrap;html=1;" vertex="1" parent="1">
          <mxGeometry x="-70" y="110" width="120" height="80" as="geometry" />
        </mxCell>
        <mxCell id="HlUUgPDsN3vnLuuE_RGb-67" value="" style="endArrow=none;html=1;exitX=0;exitY=0.5;exitDx=0;exitDy=0;entryX=0.5;entryY=1;entryDx=0;entryDy=0;" edge="1" parent="1" source="HlUUgPDsN3vnLuuE_RGb-3" target="HlUUgPDsN3vnLuuE_RGb-66">
          <mxGeometry width="50" height="50" relative="1" as="geometry">
            <mxPoint x="190" y="30" as="sourcePoint" />
            <mxPoint x="240" y="-20" as="targetPoint" />
          </mxGeometry>
        </mxCell>
      </root>
    </mxGraphModel>
  </diagram>
</mxfile>
